# xmcd
#
# Track frame offsets: 
#        150
#        13312
#        39665
#        53267
#
# Disc length: 989 seconds
#
# Revision: 2
# Processed by: cddbd v1.5.2PL0 Copyright (c) Steve Scherf et al.
# Submitted via: ExactAudioCopy v0.95b4
#
DISCID=2803db04
DTITLE=Sheep On Drugs - Let the Good Times Roll
DYEAR=1994
DGENRE=
TTITLE0=Let the Good Times Roll (7" Version)
TTITLE1=Let the Good Times Roll (12" Version)
TTITLE2=Got Nothing Good To Say Today
TTITLE3=Let the Good Times Roll (Alternative Version)
EXTD=
EXTT0=
EXTT1=
EXTT2=
EXTT3=
PLAYORDER=
